# xmcd
#
# Track frame offsets:
#	150
#	11520
#	23715
#	36682
#	45540
#	58687
#	68347
#	80720
#	91590
#	103150
#
# Disc length: 1527 seconds
#
# Revision: 1
# Processed by: cddbd v1.5.1PL2 Copyright (c) Steve Scherf et al.
# Submitted via: audiograbber 1.83.01
#
DISCID=7705f50a
DTITLE=Various Artist - Country Legends
DYEAR=1993
DGENRE=Country
TTITLE0=The Kendalls - Heaven's Just A Sin Away
TTITLE1=Johnny Cash - I Walk The Line
TTITLE2=Reba McEntire - You're The First Time I Thought About Leaving
TTITLE3=Roger Miller - England Swings
TTITLE4=Hank Williams - Hey Good Lookin'
TTITLE5=Willie Nelson - Let's Pretend
TTITLE6=Alabama - Loving You Is Killing Me
TTITLE7=Waylon Jennings - Sally Was A Good Old Girl
TTITLE8=Johnny Paycheck - Take This Job And Shove It
TTITLE9=Kenny Rogers - Me And Bobby McGee
EXTD=
EXTT0=
EXTT1=
EXTT2=
EXTT3=
EXTT4=
EXTT5=
EXTT6=
EXTT7=
EXTT8=
EXTT9=
PLAYORDER=
